  0
SECTION
  2
HEADER
  9
$ACADVER
  1
AC1003
  9
$EXTMIN
 10
0.769999999999996
 20
34.8299999999999
  9
$EXTMAX
 10
74.1234450426312
 20
0.85999999999991
  9
$INSUNITS
 70
1
  9
$INSBASE
 10
37.4467225213156
 20
17.8449999999999
999
Created with OMAX Layout for Windows. (www.omax.com) 2/4/2021
  0
ENDSEC
  0
SECTION
  2
TABLES
  0
TABLE
  2
LAYER
 70
    10
  0
LAYER
  2
0
 70
     0
 62
     7
  6
CONTINUOUS
  0
LAYER
  2
1
 70
     0
 62
     7
  6
CONTINUOUS
  0
LAYER
  2
2
 70
     0
 62
     7
  6
CONTINUOUS
  0
LAYER
  2
3
 70
     0
 62
     7
  6
CONTINUOUS
  0
LAYER
  2
4
 70
     0
 62
     7
  6
CONTINUOUS
  0
LAYER
  2
5
 70
     0
 62
     7
  6
CONTINUOUS
  0
LAYER
  2
6
 70
     0
 62
     7
  6
CONTINUOUS
  0
LAYER
  2
7
 70
     0
 62
     7
  6
CONTINUOUS
  0
LAYER
  2
8
 70
     0
 62
     7
  6
CONTINUOUS
  0
LAYER
  2
9
 70
     0
 62
     7
  6
CONTINUOUS
  0
LAYER
  2
10
 70
     0
 62
     7
  6
CONTINUOUS
  0
LAYER
  2
11
 70
     0
 62
     7
  6
CONTINUOUS
  0
LAYER
  2
12
 70
     0
 62
     7
  6
CONTINUOUS
  0
LAYER
  2
13
 70
     0
 62
     7
  6
CONTINUOUS
  0
LAYER
  2
14
 70
     0
 62
     7
  6
CONTINUOUS
  0
LAYER
  2
15
 70
     0
 62
     7
  6
CONTINUOUS
  0
LAYER
  2
16
 70
     0
 62
     7
  6
CONTINUOUS
  0
LAYER
  2
17
 70
     0
 62
     7
  6
CONTINUOUS
  0
LAYER
  2
18
 70
     0
 62
     7
  6
CONTINUOUS
  0
LAYER
  2
19
 70
     0
 62
     7
  6
CONTINUOUS
  0
LAYER
  2
20
 70
     0
 62
     7
  6
CONTINUOUS
  0
LAYER
  2
21
 70
     0
 62
     7
  6
CONTINUOUS
  0
LAYER
  2
22
 70
     0
 62
     7
  6
CONTINUOUS
  0
LAYER
  2
23
 70
     0
 62
     7
  6
CONTINUOUS
  0
LAYER
  2
24
 70
     0
 62
     7
  6
CONTINUOUS
  0
LAYER
  2
25
 70
     0
 62
     7
  6
CONTINUOUS
  0
LAYER
  2
26
 70
     0
 62
     7
  6
CONTINUOUS
  0
LAYER
  2
27
 70
     0
 62
     7
  6
CONTINUOUS
  0
LAYER
  2
28
 70
     0
 62
     7
  6
CONTINUOUS
  0
LAYER
  2
29
 70
     0
 62
     7
  6
CONTINUOUS
  0
LAYER
  2
30
 70
     0
 62
     7
  6
CONTINUOUS
  0
LAYER
  2
31
 70
     0
 62
     7
  6
CONTINUOUS
  0
ENDTAB
  0
ENDSEC
  0
SECTION
  2
ENTITIES
  0
ARC
  8
0
  6
CONTINUOUS
 62
0
 10
2.0609964385603
 20
4.89047913032949
 30
0.0
 40
0.125
 50
179.999999999997
 51
359.999999999997
  0
ARC
  8
0
  6
CONTINUOUS
 62
0
 10
2.0609964385603
 20
4.89047913032949
 30
0.0
 40
0.125
 50
359.999999999997
 51
180
  0
ARC
  8
0
  6
CONTINUOUS
 62
0
 10
23.4390035614397
 20
4.89047913032948
 30
0.0
 40
0.125
 50
179.999999999997
 51
359.999999999997
  0
ARC
  8
0
  6
CONTINUOUS
 62
0
 10
23.4390035614397
 20
4.89047913032948
 30
0.0
 40
0.125
 50
359.999999999997
 51
180
  0
ARC
  8
0
  6
CONTINUOUS
 62
0
 10
12.75
 20
12.375
 30
0.0
 40
0.125
 50
179.999999999999
 51
359.999999999999
  0
ARC
  8
0
  6
CONTINUOUS
 62
0
 10
12.75
 20
12.375
 30
0.0
 40
0.125
 50
359.999999999999
 51
180
  0
ARC
  8
0
  6
CONTINUOUS
 62
0
 10
19.2744319634932
 20
10.3178545037873
 30
0.0
 40
0.125
 50
179.999999999999
 51
359.999999999999
  0
ARC
  8
0
  6
CONTINUOUS
 62
0
 10
19.2744319634932
 20
10.3178545037873
 30
0.0
 40
0.125
 50
359.999999999999
 51
180
  0
ARC
  8
0
  6
CONTINUOUS
 62
0
 10
6.22556803650685
 20
10.3178545037873
 30
0.0
 40
0.125
 50
179.999999999999
 51
359.999999999999
  0
ARC
  8
0
  6
CONTINUOUS
 62
0
 10
6.22556803650685
 20
10.3178545037873
 30
0.0
 40
0.125
 50
359.999999999999
 51
180
  0
LINE
  8
0
  6
CONTINUOUS
 62
0
 10
1.52
 20
1
 30
0.0
 11
1.52
 21
1.50771330594287
 31
0.0
  0
LINE
  8
0
  6
CONTINUOUS
 62
0
 10
1.52
 20
1.50771330594287
 30
0.0
 11
1.7500000000001
 21
1.50771330594287
 31
0.0
  0
LINE
  8
0
  6
CONTINUOUS
 62
0
 10
1.7500000000001
 20
1.50771330594287
 30
0.0
 11
1.75
 21
1
 31
0.0
  0
ARC
  8
0
  6
CONTINUOUS
 62
0
 10
12.75
 20
1.00000000000033
 30
0.0
 40
11
 50
359.999999999997
 51
180
  0
LINE
  8
0
  6
CONTINUOUS
 62
0
 10
23.75
 20
1
 30
0.0
 11
23.7499999999999
 21
1.50771330594288
 31
0.0
  0
LINE
  8
0
  6
CONTINUOUS
 62
0
 10
23.7499999999999
 20
1.50771330594288
 30
0.0
 11
23.98
 21
1.50771330594288
 31
0.0
  0
LINE
  8
0
  6
CONTINUOUS
 62
0
 10
23.98
 20
1.50771330594288
 30
0.0
 11
23.98
 21
1
 31
0.0
  0
LINE
  8
0
  6
CONTINUOUS
 62
0
 10
23.98
 20
1
 30
0.0
 11
24.5
 21
1
 31
0.0
  0
ARC
  8
0
  6
CONTINUOUS
 62
0
 10
12.75
 20
1.00000000000034
 30
0.0
 40
11.75
 50
359.999999999997
 51
180
  0
LINE
  8
0
  6
CONTINUOUS
 62
0
 10
1
 20
1
 30
0.0
 11
1.52
 21
1
 31
0.0
  0
ARC
  8
0
  6
CONTINUOUS
 62
0
 10
31.3669481744949
 20
9.74662832613045
 30
0.0
 40
0.125
 50
179.999999999999
 51
359.999999999999
  0
ARC
  8
0
  6
CONTINUOUS
 62
0
 10
31.3669481744949
 20
9.74662832613046
 30
0.0
 40
0.125
 50
359.999999999999
 51
180
  0
ARC
  8
0
  6
CONTINUOUS
 62
0
 10
44.4158121014811
 20
9.74662832613045
 30
0.0
 40
0.125
 50
179.999999999999
 51
359.999999999999
  0
ARC
  8
0
  6
CONTINUOUS
 62
0
 10
44.4158121014811
 20
9.74662832613045
 30
0.0
 40
0.125
 50
359.999999999999
 51
180
  0
ARC
  8
0
  6
CONTINUOUS
 62
0
 10
37.891380137988
 20
11.8037738223432
 30
0.0
 40
0.125
 50
179.999999999999
 51
359.999999999999
  0
ARC
  8
0
  6
CONTINUOUS
 62
0
 10
37.891380137988
 20
11.8037738223432
 30
0.0
 40
0.125
 50
359.999999999999
 51
180
  0
ARC
  8
0
  6
CONTINUOUS
 62
0
 10
48.5803836994277
 20
4.31925295267265
 30
0.0
 40
0.125
 50
179.999999999997
 51
359.999999999997
  0
ARC
  8
0
  6
CONTINUOUS
 62
0
 10
48.5803836994277
 20
4.31925295267265
 30
0.0
 40
0.125
 50
359.999999999997
 51
180
  0
ARC
  8
0
  6
CONTINUOUS
 62
0
 10
27.2023765765483
 20
4.31925295267265
 30
0.0
 40
0.125
 50
179.999999999997
 51
359.999999999997
  0
ARC
  8
0
  6
CONTINUOUS
 62
0
 10
27.2023765765483
 20
4.31925295267266
 30
0.0
 40
0.125
 50
359.999999999997
 51
180
  0
LINE
  8
0
  6
CONTINUOUS
 62
0
 10
26.8913801379881
 20
1.59771330594279
 30
0.0
 11
26.891380137988
 21
1.08999999999991
 31
0.0
  0
LINE
  8
0
  6
CONTINUOUS
 62
0
 10
26.891380137988
 20
1.08999999999991
 30
0.0
 11
26.9112717622942
 21
1.08999999999991
 31
0.0
  0
ARC
  8
0
  6
CONTINUOUS
 62
0
 10
37.891380137988
 20
0.428773822343298
 30
0.0
 40
11
 50
3.44621111680013
 51
176.553788883199
  0
LINE
  8
0
  6
CONTINUOUS
 62
0
 10
48.8714885136818
 20
1.08999999999991
 30
0.0
 11
48.8913801379879
 21
1.08999999999991
 31
0.0
  0
LINE
  8
0
  6
CONTINUOUS
 62
0
 10
48.8913801379879
 20
1.08999999999991
 30
0.0
 11
48.8913801379879
 21
1.59771330594279
 31
0.0
  0
LINE
  8
0
  6
CONTINUOUS
 62
0
 10
48.8913801379879
 20
1.59771330594279
 30
0.0
 11
49.121380137988
 21
1.59771330594279
 31
0.0
  0
LINE
  8
0
  6
CONTINUOUS
 62
0
 10
49.121380137988
 20
1.59771330594279
 30
0.0
 11
49.121380137988
 21
1.08999999999991
 31
0.0
  0
LINE
  8
0
  6
CONTINUOUS
 62
0
 10
49.121380137988
 20
1.08999999999991
 30
0.0
 11
49.622760275976
 21
1.08999999999991
 31
0.0
  0
ARC
  8
0
  6
CONTINUOUS
 62
0
 10
37.891380137988
 20
0.428773822343298
 30
0.0
 40
11.7499999999999
 50
3.22599948548556
 51
176.774000514514
  0
LINE
  8
0
  6
CONTINUOUS
 62
0
 10
26.16
 20
1.08999999999991
 30
0.0
 11
26.661380137988
 21
1.08999999999991
 31
0.0
  0
LINE
  8
0
  6
CONTINUOUS
 62
0
 10
26.661380137988
 20
1.08999999999991
 30
0.0
 11
26.661380137988
 21
1.59771330594279
 31
0.0
  0
LINE
  8
0
  6
CONTINUOUS
 62
0
 10
26.661380137988
 20
1.59771330594279
 30
0.0
 11
26.8913801379881
 21
1.59771330594279
 31
0.0
  0
ARC
  8
0
  6
CONTINUOUS
 62
0
 10
55.9236706958104
 20
8.85540214847371
 30
0.0
 40
0.125
 50
179.999999999999
 51
359.999999999999
  0
ARC
  8
0
  6
CONTINUOUS
 62
0
 10
55.9236706958104
 20
8.85540214847371
 30
0.0
 40
0.125
 50
359.999999999999
 51
180
  0
ARC
  8
0
  6
CONTINUOUS
 62
0
 10
68.9725346227967
 20
8.8554021484737
 30
0.0
 40
0.125
 50
179.999999999999
 51
359.999999999999
  0
ARC
  8
0
  6
CONTINUOUS
 62
0
 10
68.9725346227967
 20
8.8554021484737
 30
0.0
 40
0.125
 50
359.999999999999
 51
180
  0
ARC
  8
0
  6
CONTINUOUS
 62
0
 10
62.4481026593036
 20
10.9125476446864
 30
0.0
 40
0.125
 50
179.999999999999
 51
359.999999999999
  0
ARC
  8
0
  6
CONTINUOUS
 62
0
 10
62.4481026593036
 20
10.9125476446864
 30
0.0
 40
0.125
 50
359.999999999999
 51
180
  0
ARC
  8
0
  6
CONTINUOUS
 62
0
 10
73.1371062207433
 20
3.4280267750159
 30
0.0
 40
0.125
 50
179.999999999997
 51
359.999999999997
  0
ARC
  8
0
  6
CONTINUOUS
 62
0
 10
73.1371062207433
 20
3.4280267750159
 30
0.0
 40
0.125
 50
359.999999999997
 51
180
  0
ARC
  8
0
  6
CONTINUOUS
 62
0
 10
51.7590990978639
 20
3.42802677501591
 30
0.0
 40
0.125
 50
179.999999999997
 51
359.999999999997
  0
ARC
  8
0
  6
CONTINUOUS
 62
0
 10
51.7590990978639
 20
3.42802677501591
 30
0.0
 40
0.125
 50
359.999999999997
 51
180
  0
LINE
  8
0
  6
CONTINUOUS
 62
0
 10
51.4481026593037
 20
1.36771330594278
 30
0.0
 11
51.4481026593036
 21
0.859999999999912
 31
0.0
  0
LINE
  8
0
  6
CONTINUOUS
 62
0
 10
51.4481026593036
 20
0.859999999999912
 30
0.0
 11
51.527886554852
 21
0.859999999999912
 31
0.0
  0
ARC
  8
0
  6
CONTINUOUS
 62
0
 10
62.4481026593036
 20
-0.462452355313457
 30
0.0
 40
10.9999999999999
 50
6.90496933020372
 51
173.095030669795
  0
LINE
  8
0
  6
CONTINUOUS
 62
0
 10
73.3683187637552
 20
0.859999999999912
 30
0.0
 11
73.4481026593035
 21
0.859999999999912
 31
0.0
  0
LINE
  8
0
  6
CONTINUOUS
 62
0
 10
73.4481026593035
 20
0.859999999999912
 30
0.0
 11
73.4481026593035
 21
1.36771330594278
 31
0.0
  0
LINE
  8
0
  6
CONTINUOUS
 62
0
 10
73.4481026593035
 20
1.36771330594278
 30
0.0
 11
73.6781026593036
 21
1.36771330594278
 31
0.0
  0
LINE
  8
0
  6
CONTINUOUS
 62
0
 10
73.6781026593036
 20
1.36771330594278
 30
0.0
 11
73.6781026593036
 21
0.859999999999912
 31
0.0
  0
LINE
  8
0
  6
CONTINUOUS
 62
0
 10
73.6781026593036
 20
0.859999999999912
 30
0.0
 11
74.1234450426312
 21
0.859999999999912
 31
0.0
  0
ARC
  8
0
  6
CONTINUOUS
 62
0
 10
62.4481026593036
 20
-0.462452355313467
 30
0.0
 40
11.75
 50
6.46228309298895
 51
173.53771690701
  0
LINE
  8
0
  6
CONTINUOUS
 62
0
 10
50.772760275976
 20
0.859999999999912
 30
0.0
 11
51.2181026593036
 21
0.859999999999912
 31
0.0
  0
LINE
  8
0
  6
CONTINUOUS
 62
0
 10
51.2181026593036
 20
0.859999999999912
 30
0.0
 11
51.2181026593036
 21
1.36771330594278
 31
0.0
  0
LINE
  8
0
  6
CONTINUOUS
 62
0
 10
51.2181026593036
 20
1.36771330594278
 30
0.0
 11
51.4481026593037
 21
1.36771330594278
 31
0.0
  0
ARC
  8
0
  6
CONTINUOUS
 62
0
 10
1.9257850767262
 20
9.09680059735917
 30
0.0
 40
0.125
 50
179.999999999999
 51
359.999999999999
  0
ARC
  8
0
  6
CONTINUOUS
 62
0
 10
1.9257850767262
 20
9.09680059735917
 30
0.0
 40
0.125
 50
359.999999999999
 51
180
  0
ARC
  8
0
  6
CONTINUOUS
 62
0
 10
23.3037921996056
 20
9.09680059735916
 30
0.0
 40
0.125
 50
179.999999999999
 51
359.999999999999
  0
ARC
  8
0
  6
CONTINUOUS
 62
0
 10
23.3037921996056
 20
9.09680059735916
 30
0.0
 40
0.125
 50
359.999999999999
 51
180
  0
ARC
  8
0
  6
CONTINUOUS
 62
0
 10
12.6147886381659
 20
16.5813214670297
 30
0.0
 40
0.125
 50
179.999999999998
 51
359.999999999998
  0
ARC
  8
0
  6
CONTINUOUS
 62
0
 10
12.6147886381659
 20
16.5813214670297
 30
0.0
 40
0.125
 50
359.999999999997
 51
179.999999999999
  0
ARC
  8
0
  6
CONTINUOUS
 62
0
 10
19.139220601659
 20
14.524175970817
 30
0.0
 40
0.125
 50
179.999999999999
 51
359.999999999999
  0
ARC
  8
0
  6
CONTINUOUS
 62
0
 10
19.139220601659
 20
14.524175970817
 30
0.0
 40
0.125
 50
359.999999999999
 51
180
  0
ARC
  8
0
  6
CONTINUOUS
 62
0
 10
6.09035667467275
 20
14.524175970817
 30
0.0
 40
0.125
 50
179.999999999999
 51
359.999999999999
  0
ARC
  8
0
  6
CONTINUOUS
 62
0
 10
6.09035667467275
 20
14.524175970817
 30
0.0
 40
0.125
 50
359.999999999999
 51
180
  0
LINE
  8
0
  6
CONTINUOUS
 62
0
 10
1.3847886381659
 20
7.18999999999991
 30
0.0
 11
1.3847886381659
 21
7.69771330594279
 31
0.0
  0
LINE
  8
0
  6
CONTINUOUS
 62
0
 10
1.3847886381659
 20
7.69771330594279
 30
0.0
 11
1.614788638166
 21
7.69771330594279
 31
0.0
  0
LINE
  8
0
  6
CONTINUOUS
 62
0
 10
1.614788638166
 20
7.69771330594279
 30
0.0
 11
1.6147886381659
 21
7.18999999999991
 31
0.0
  0
LINE
  8
0
  6
CONTINUOUS
 62
0
 10
1.6147886381659
 20
7.18999999999991
 30
0.0
 11
1.7951297027913
 21
7.18999999999991
 31
0.0
  0
ARC
  8
0
  6
CONTINUOUS
 62
0
 10
12.6147886381659
 20
5.2063214670298
 30
0.0
 40
10.9999999999999
 50
10.3892389638239
 51
169.610761036175
  0
LINE
  8
0
  6
CONTINUOUS
 62
0
 10
23.4344475735405
 20
7.18999999999991
 30
0.0
 11
23.6147886381658
 21
7.18999999999991
 31
0.0
  0
LINE
  8
0
  6
CONTINUOUS
 62
0
 10
23.6147886381658
 20
7.18999999999991
 30
0.0
 11
23.6147886381658
 21
7.69771330594279
 31
0.0
  0
LINE
  8
0
  6
CONTINUOUS
 62
0
 10
23.6147886381658
 20
7.69771330594279
 30
0.0
 11
23.8447886381659
 21
7.69771330594279
 31
0.0
  0
LINE
  8
0
  6
CONTINUOUS
 62
0
 10
23.8447886381659
 20
7.69771330594279
 30
0.0
 11
23.8447886381659
 21
7.18999999999991
 31
0.0
  0
LINE
  8
0
  6
CONTINUOUS
 62
0
 10
23.8447886381659
 20
7.18999999999991
 30
0.0
 11
24.1961322337006
 21
7.18999999999991
 31
0.0
  0
ARC
  8
0
  6
CONTINUOUS
 62
0
 10
12.6147886381659
 20
5.20632146702981
 30
0.0
 40
11.75
 50
9.71943382455832
 51
170.280566175441
  0
LINE
  8
0
  6
CONTINUOUS
 62
0
 10
1.0334450426312
 20
7.18999999999991
 30
0.0
 11
1.3847886381659
 21
7.18999999999991
 31
0.0
  0
ARC
  8
0
  6
CONTINUOUS
 62
0
 10
31.3605680365068
 20
13.3528545037873
 30
0.0
 40
0.125
 50
179.999999999999
 51
359.999999999999
  0
ARC
  8
0
  6
CONTINUOUS
 62
0
 10
31.3605680365068
 20
13.3528545037873
 30
0.0
 40
0.125
 50
359.999999999999
 51
180
  0
ARC
  8
0
  6
CONTINUOUS
 62
0
 10
44.4094319634931
 20
13.3528545037873
 30
0.0
 40
0.125
 50
179.999999999998
 51
359.999999999998
  0
ARC
  8
0
  6
CONTINUOUS
 62
0
 10
44.4094319634931
 20
13.3528545037873
 30
0.0
 40
0.125
 50
359.999999999998
 51
179.999999999999
  0
ARC
  8
0
  6
CONTINUOUS
 62
0
 10
37.885
 20
15.41
 30
0.0
 40
0.125
 50
179.999999999999
 51
359.999999999999
  0
ARC
  8
0
  6
CONTINUOUS
 62
0
 10
37.885
 20
15.41
 30
0.0
 40
0.125
 50
359.999999999999
 51
180
  0
ARC
  8
0
  6
CONTINUOUS
 62
0
 10
48.5740035614397
 20
7.92547913032948
 30
0.0
 40
0.125
 50
179.999999999997
 51
359.999999999997
  0
ARC
  8
0
  6
CONTINUOUS
 62
0
 10
48.5740035614397
 20
7.92547913032948
 30
0.0
 40
0.125
 50
359.999999999998
 51
180
  0
ARC
  8
0
  6
CONTINUOUS
 62
0
 10
27.1959964385603
 20
7.92547913032949
 30
0.0
 40
0.125
 50
179.999999999998
 51
359.999999999998
  0
ARC
  8
0
  6
CONTINUOUS
 62
0
 10
27.1959964385603
 20
7.92547913032949
 30
0.0
 40
0.125
 50
359.999999999998
 51
180
  0
LINE
  8
0
  6
CONTINUOUS
 62
0
 10
26.8850000000001
 20
7.18761801656985
 30
0.0
 11
26.885
 21
6.67990471062698
 31
0.0
  0
LINE
  8
0
  6
CONTINUOUS
 62
0
 10
26.885
 20
6.67990471062698
 30
0.0
 11
27.2077119982787
 21
6.67990471062698
 31
0.0
  0
ARC
  8
0
  6
CONTINUOUS
 62
0
 10
37.885
 20
4.03500000000014
 30
0.0
 40
10.9999999999999
 50
13.9128582105519
 51
166.087141789447
  0
LINE
  8
0
  6
CONTINUOUS
 62
0
 10
48.5622880017213
 20
6.67990471062698
 30
0.0
 11
48.8849999999999
 21
6.67990471062698
 31
0.0
  0
LINE
  8
0
  6
CONTINUOUS
 62
0
 10
48.8849999999999
 20
6.67990471062698
 30
0.0
 11
48.8849999999999
 21
7.18761801656985
 31
0.0
  0
LINE
  8
0
  6
CONTINUOUS
 62
0
 10
48.8849999999999
 20
7.18761801656985
 30
0.0
 11
49.115
 21
7.18761801656985
 31
0.0
  0
LINE
  8
0
  6
CONTINUOUS
 62
0
 10
49.115
 20
7.18761801656985
 30
0.0
 11
49.115
 21
6.67990471062698
 31
0.0
  0
LINE
  8
0
  6
CONTINUOUS
 62
0
 10
49.115
 20
6.67990471062698
 30
0.0
 11
49.3334487626797
 21
6.67990471062698
 31
0.0
  0
ARC
  8
0
  6
CONTINUOUS
 62
0
 10
37.885
 20
4.03500000000014
 30
0.0
 40
11.75
 50
13.0086570484341
 51
166.991342951565
  0
LINE
  8
0
  6
CONTINUOUS
 62
0
 10
26.4365512373203
 20
6.67990471062698
 30
0.0
 11
26.655
 21
6.67990471062698
 31
0.0
  0
LINE
  8
0
  6
CONTINUOUS
 62
0
 10
26.655
 20
6.67990471062698
 30
0.0
 11
26.655
 21
7.18761801656985
 31
0.0
  0
LINE
  8
0
  6
CONTINUOUS
 62
0
 10
26.655
 20
7.18761801656985
 30
0.0
 11
26.8850000000001
 21
7.18761801656985
 31
0.0
  0
LINE
  8
0
  6
CONTINUOUS
 62
0
 10
18.2608151213713
 20
27.0711653543306
 30
0.0
 11
1.24081537665428
 21
27.0711653543306
 31
0.0
  0
LINE
  8
0
  6
CONTINUOUS
 62
0
 10
1.24081537665428
 20
27.0711653543306
 30
0.0
 11
1.24081512137128
 21
24.5711654293256
 31
0.0
  0
LINE
  8
0
  6
CONTINUOUS
 62
0
 10
1.24081512137128
 20
24.5711653543306
 30
0.0
 11
18.2608148660883
 21
24.5711653543306
 31
0.0
  0
LINE
  8
0
  6
CONTINUOUS
 62
0
 10
18.2608148660883
 20
24.5711653543306
 30
0.0
 11
18.2608151213713
 21
25.3211653318321
 31
0.0
  0
LINE
  8
0
  6
CONTINUOUS
 62
0
 10
18.2608151213713
 20
28.1236653543306
 30
0.0
 11
18.4908151144718
 21
28.1236653543306
 31
0.0
  0
LINE
  8
0
  6
CONTINUOUS
 62
0
 10
18.4908151213713
 20
28.1236653543306
 30
0.0
 11
18.4908151213713
 21
29.1236653243326
 31
0.0
  0
LINE
  8
0
  6
CONTINUOUS
 62
0
 10
18.4908151213713
 20
29.1236653543306
 30
0.0
 11
18.2608151282709
 21
29.1236653543306
 31
0.0
  0
LINE
  8
0
  6
CONTINUOUS
 62
0
 10
18.2608151213713
 20
29.1236653543306
 30
0.0
 11
18.2608151213713
 21
29.8736653318321
 31
0.0
  0
LINE
  8
0
  6
CONTINUOUS
 62
0
 10
18.2608151213713
 20
25.3211653543306
 30
0.0
 11
18.4908151144718
 21
25.3211653543306
 31
0.0
  0
LINE
  8
0
  6
CONTINUOUS
 62
0
 10
18.4908151213713
 20
25.3211653543306
 30
0.0
 11
18.4908151213713
 21
26.3211653243326
 31
0.0
  0
LINE
  8
0
  6
CONTINUOUS
 62
0
 10
18.4908151213713
 20
26.3211653543306
 30
0.0
 11
18.2608151282709
 21
26.3211653543306
 31
0.0
  0
LINE
  8
0
  6
CONTINUOUS
 62
0
 10
18.2608151213713
 20
26.3211653543306
 30
0.0
 11
18.2608151213713
 21
27.0711653318321
 31
0.0
  0
LINE
  8
0
  6
CONTINUOUS
 62
0
 10
1.99248047570198
 20
23.4203307086613
 30
0.0
 11
1.99248047570198
 21
22.4203307386593
 31
0.0
  0
LINE
  8
0
  6
CONTINUOUS
 62
0
 10
1.99248047570198
 20
22.4203307086613
 30
0.0
 11
1.76248048260159
 21
22.4203307086613
 31
0.0
  0
LINE
  8
0
  6
CONTINUOUS
 62
0
 10
1.76248047570199
 20
22.4203307086613
 30
0.0
 11
1.76248047570199
 21
23.4203306786633
 31
0.0
  0
LINE
  8
0
  6
CONTINUOUS
 62
0
 10
1.76248047570199
 20
23.4203307086613
 30
0.0
 11
1.99248046880248
 21
23.4203307086613
 31
0.0
  0
LINE
  8
0
  6
CONTINUOUS
 62
0
 10
9.74081512137128
 20
29.1236653543306
 30
0.0
 11
9.97081511447179
 21
29.1236653543306
 31
0.0
  0
LINE
  8
0
  6
CONTINUOUS
 62
0
 10
9.97081512137129
 20
29.1236653543306
 30
0.0
 11
9.97081512137129
 21
28.1236653843286
 31
0.0
  0
LINE
  8
0
  6
CONTINUOUS
 62
0
 10
9.97081512137129
 20
28.1236653543306
 30
0.0
 11
9.74081512827088
 21
28.1236653543306
 31
0.0
  0
LINE
  8
0
  6
CONTINUOUS
 62
0
 10
9.74081512137128
 20
28.1236653543306
 30
0.0
 11
9.74081512137128
 21
29.1236653243326
 31
0.0
  0
LINE
  8
0
  6
CONTINUOUS
 62
0
 10
9.74081512137128
 20
26.3211653543306
 30
0.0
 11
9.97081511447179
 21
26.3211653543306
 31
0.0
  0
LINE
  8
0
  6
CONTINUOUS
 62
0
 10
9.97081512137129
 20
26.3211653543306
 30
0.0
 11
9.97081512137129
 21
25.3211653843286
 31
0.0
  0
LINE
  8
0
  6
CONTINUOUS
 62
0
 10
9.97081512137129
 20
25.3211653543306
 30
0.0
 11
9.74081512827088
 21
25.3211653543306
 31
0.0
  0
LINE
  8
0
  6
CONTINUOUS
 62
0
 10
9.74081512137128
 20
25.3211653543306
 30
0.0
 11
9.74081512137128
 21
26.3211653243326
 31
0.0
  0
LINE
  8
0
  6
CONTINUOUS
 62
0
 10
22.3841694563275
 20
32.34
 30
0.0
 11
22.1541694632271
 21
32.34
 31
0.0
  0
LINE
  8
0
  6
CONTINUOUS
 62
0
 10
22.1541694563275
 20
32.34
 30
0.0
 11
22.1541694563275
 21
33.339999970002
 31
0.0
  0
LINE
  8
0
  6
CONTINUOUS
 62
0
 10
22.1541694563275
 20
33.34
 30
0.0
 11
22.384169449428
 21
33.34
 31
0.0
  0
LINE
  8
0
  6
CONTINUOUS
 62
0
 10
22.3841694563275
 20
33.34
 30
0.0
 11
22.3841694563275
 21
32.340000029998
 31
0.0
  0
LINE
  8
0
  6
CONTINUOUS
 62
0
 10
1.8458348106582
 20
32.34
 30
0.0
 11
1.6158348175578
 21
32.34
 31
0.0
  0
LINE
  8
0
  6
CONTINUOUS
 62
0
 10
1.61583481065819
 20
32.34
 30
0.0
 11
1.61583481065819
 21
33.339999970002
 31
0.0
  0
LINE
  8
0
  6
CONTINUOUS
 62
0
 10
1.61583481065819
 20
33.34
 30
0.0
 11
1.84583480375869
 21
33.34
 31
0.0
  0
LINE
  8
0
  6
CONTINUOUS
 62
0
 10
1.8458348106582
 20
33.34
 30
0.0
 11
1.8458348106582
 21
32.340000029998
 31
0.0
  0
LINE
  8
0
  6
CONTINUOUS
 62
0
 10
9.88748047570199
 20
20.5836653543306
 30
0.0
 11
9.88748047570199
 21
19.5836653843286
 31
0.0
  0
LINE
  8
0
  6
CONTINUOUS
 62
0
 10
9.88748047570199
 20
19.5836653543306
 30
0.0
 11
9.65748048260158
 21
19.5836653543306
 31
0.0
  0
LINE
  8
0
  6
CONTINUOUS
 62
0
 10
9.65748047570199
 20
19.5836653543306
 30
0.0
 11
9.65748047570199
 21
20.5836653243326
 31
0.0
  0
LINE
  8
0
  6
CONTINUOUS
 62
0
 10
9.65748047570199
 20
20.5836653543306
 30
0.0
 11
9.88748046880249
 21
20.5836653543306
 31
0.0
  0
LINE
  8
0
  6
CONTINUOUS
 62
0
 10
9.992480475702
 20
23.4203307086613
 30
0.0
 11
9.992480475702
 21
22.4203307386593
 31
0.0
  0
LINE
  8
0
  6
CONTINUOUS
 62
0
 10
9.992480475702
 20
22.4203307086613
 30
0.0
 11
9.76248048260159
 21
22.4203307086613
 31
0.0
  0
LINE
  8
0
  6
CONTINUOUS
 62
0
 10
9.76248047570199
 20
22.4203307086613
 30
0.0
 11
9.76248047570199
 21
23.4203306786633
 31
0.0
  0
LINE
  8
0
  6
CONTINUOUS
 62
0
 10
9.76248047570199
 20
23.4203307086613
 30
0.0
 11
9.99248046880248
 21
23.4203307086613
 31
0.0
  0
LINE
  8
0
  6
CONTINUOUS
 62
0
 10
1.74081512137128
 20
26.3211653543306
 30
0.0
 11
1.97081511447179
 21
26.3211653543306
 31
0.0
  0
LINE
  8
0
  6
CONTINUOUS
 62
0
 10
1.97081512137129
 20
26.3211653543306
 30
0.0
 11
1.97081512137129
 21
25.3211653843286
 31
0.0
  0
LINE
  8
0
  6
CONTINUOUS
 62
0
 10
1.97081512137129
 20
25.3211653543306
 30
0.0
 11
1.74081512827088
 21
25.3211653543306
 31
0.0
  0
LINE
  8
0
  6
CONTINUOUS
 62
0
 10
1.74081512137128
 20
25.3211653543306
 30
0.0
 11
1.74081512137128
 21
26.3211653243326
 31
0.0
  0
LINE
  8
0
  6
CONTINUOUS
 62
0
 10
1.74081512137128
 20
29.1236653543306
 30
0.0
 11
1.97081511447179
 21
29.1236653543306
 31
0.0
  0
LINE
  8
0
  6
CONTINUOUS
 62
0
 10
1.97081512137129
 20
29.1236653543306
 30
0.0
 11
1.97081512137129
 21
28.1236653843286
 31
0.0
  0
LINE
  8
0
  6
CONTINUOUS
 62
0
 10
1.97081512137129
 20
28.1236653543306
 30
0.0
 11
1.74081512827088
 21
28.1236653543306
 31
0.0
  0
LINE
  8
0
  6
CONTINUOUS
 62
0
 10
1.74081512137128
 20
28.1236653543306
 30
0.0
 11
1.74081512137128
 21
29.1236653243326
 31
0.0
  0
LINE
  8
0
  6
CONTINUOUS
 62
0
 10
1.88748047570199
 20
20.5836653543306
 30
0.0
 11
1.88748047570199
 21
19.5836653843286
 31
0.0
  0
LINE
  8
0
  6
CONTINUOUS
 62
0
 10
1.88748047570199
 20
19.5836653543306
 30
0.0
 11
1.65748048260158
 21
19.5836653543306
 31
0.0
  0
LINE
  8
0
  6
CONTINUOUS
 62
0
 10
1.65748047570199
 20
19.5836653543306
 30
0.0
 11
1.65748047570199
 21
20.5836653243326
 31
0.0
  0
LINE
  8
0
  6
CONTINUOUS
 62
0
 10
1.65748047570199
 20
20.5836653543306
 30
0.0
 11
1.88748046880249
 21
20.5836653543306
 31
0.0
  0
LINE
  8
0
  6
CONTINUOUS
 62
0
 10
1.000000494967
 20
34.09
 30
0.0
 11
1.000000164989
 21
33.3400000224985
 31
0.0
  0
LINE
  8
0
  6
CONTINUOUS
 62
0
 10
1.000000164989
 20
33.34
 30
0.0
 11
0.770000171888491
 21
33.34
 31
0.0
  0
LINE
  8
0
  6
CONTINUOUS
 62
0
 10
0.770000164988993
 20
33.34
 30
0.0
 11
0.770000164988993
 21
32.340000029998
 31
0.0
  0
LINE
  8
0
  6
CONTINUOUS
 62
0
 10
0.770000164988993
 20
32.34
 30
0.0
 11
1.00000015808939
 21
32.34
 31
0.0
  0
LINE
  8
0
  6
CONTINUOUS
 62
0
 10
1.000000164989
 20
32.34
 30
0.0
 11
1.000000164989
 21
31.5900000224985
 31
0.0
  0
LINE
  8
0
  6
CONTINUOUS
 62
0
 10
22.999999835011
 20
31.59
 30
0.0
 11
23.000000164989
 21
32.3399999775015
 31
0.0
  0
LINE
  8
0
  6
CONTINUOUS
 62
0
 10
23.000000164989
 20
32.34
 30
0.0
 11
23.2300001580894
 21
32.34
 31
0.0
  0
LINE
  8
0
  6
CONTINUOUS
 62
0
 10
23.230000164989
 20
32.34
 30
0.0
 11
23.230000164989
 21
33.339999970002
 31
0.0
  0
LINE
  8
0
  6
CONTINUOUS
 62
0
 10
23.230000164989
 20
33.34
 30
0.0
 11
23.0000001718885
 21
33.34
 31
0.0
  0
LINE
  8
0
  6
CONTINUOUS
 62
0
 10
23.000000164989
 20
33.34
 30
0.0
 11
23.000000164989
 21
34.0899999775015
 31
0.0
  0
LINE
  8
0
  6
CONTINUOUS
 62
0
 10
14.112480475702
 20
24.1703307086613
 30
0.0
 11
10.5583151746802
 21
24.1703307086613
 31
0.0
  0
LINE
  8
0
  6
CONTINUOUS
 62
0
 10
10.5583151746802
 20
24.1703307086613
 30
0.0
 11
10.5808151206964
 21
24.0453307124111
 31
0.0
  0
LINE
  8
0
  6
CONTINUOUS
 62
0
 10
14.007480475702
 20
21.3336653543306
 30
0.0
 11
10.4533151746802
 21
21.3336653543306
 31
0.0
  0
LINE
  8
0
  6
CONTINUOUS
 62
0
 10
10.4533151746802
 20
21.3336653543306
 30
0.0
 11
10.4758151206964
 21
21.2086653580804
 31
0.0
  0
LINE
  8
0
  6
CONTINUOUS
 62
0
 10
10.304980475702
 20
24.1703307086613
 30
0.0
 11
6.75081517468024
 21
24.1703307086613
 31
0.0
  0
LINE
  8
0
  6
CONTINUOUS
 62
0
 10
6.75081517468024
 20
24.1703307086613
 30
0.0
 11
6.77248047505209
 21
24.0453307124111
 31
0.0
  0
LINE
  8
0
  6
CONTINUOUS
 62
0
 10
10.199980475702
 20
21.3336653543306
 30
0.0
 11
6.64581517468024
 21
21.3336653543306
 31
0.0
  0
LINE
  8
0
  6
CONTINUOUS
 62
0
 10
6.64581517468024
 20
21.3336653543306
 30
0.0
 11
6.66748047505209
 21
21.2086653580804
 31
0.0
  0
LINE
  8
0
  6
CONTINUOUS
 62
0
 10
18.407480475702
 20
20.5836653543306
 30
0.0
 11
18.407480475702
 21
21.3336653318321
 31
0.0
  0
LINE
  8
0
  6
CONTINUOUS
 62
0
 10
18.407480475702
 20
21.3336653543306
 30
0.0
 11
18.0691458401821
 21
21.3336653543306
 31
0.0
  0
LINE
  8
0
  6
CONTINUOUS
 62
0
 10
18.0691458300327
 20
21.3336653543306
 30
0.0
 11
18.0916458293578
 21
21.2086653580804
 31
0.0
  0
LINE
  8
0
  6
CONTINUOUS
 62
0
 10
18.512480475702
 20
23.4203307086613
 30
0.0
 11
18.512480475702
 21
24.1703306861628
 31
0.0
  0
LINE
  8
0
  6
CONTINUOUS
 62
0
 10
18.512480475702
 20
24.1703307086613
 30
0.0
 11
18.1741458401821
 21
24.1703307086613
 31
0.0
  0
LINE
  8
0
  6
CONTINUOUS
 62
0
 10
18.1741458300327
 20
24.1703307086613
 30
0.0
 11
18.1966458293578
 21
24.0453307124111
 31
0.0
  0
LINE
  8
0
  6
CONTINUOUS
 62
0
 10
2.6891458300327
 20
24.1703307086613
 30
0.0
 11
1.26248051849909
 21
24.1703307086613
 31
0.0
  0
LINE
  8
0
  6
CONTINUOUS
 62
0
 10
1.26248047570199
 20
24.1703307086613
 30
0.0
 11
1.26248047570199
 21
21.6703307799066
 31
0.0
  0
LINE
  8
0
  6
CONTINUOUS
 62
0
 10
2.58414583003268
 20
21.3336653543306
 30
0.0
 11
1.15748051849909
 21
21.3336653543306
 31
0.0
  0
LINE
  8
0
  6
CONTINUOUS
 62
0
 10
1.15748047570199
 20
21.3336653543306
 30
0.0
 11
1.15748047570199
 21
18.8336654255759
 31
0.0
  0
LINE
  8
0
  6
CONTINUOUS
 62
0
 10
16.1641458300327
 20
22.9028307086613
 30
0.0
 11
16.1683151212462
 21
22.8861653548305
 31
0.0
  0
LINE
  8
0
  6
CONTINUOUS
 62
0
 10
16.3624796244768
 20
22.9203396535687
 30
0.0
 11
16.3608151214213
 21
22.9378307081364
 31
0.0
  0
ARC
  8
0
  6
CONTINUOUS
 62
0
 10
16.262342407681
 20
22.9206095770029
 30
0.0
 40
0.100137580589269
 50
200.11887192239
 51
359.845557559797
  0
LINE
  8
0
  6
CONTINUOUS
 62
0
 10
16.3608151213713
 20
22.9378307086613
 30
0.0
 11
16.3566458301578
 21
22.9544999994999
 31
0.0
  0
LINE
  8
0
  6
CONTINUOUS
 62
0
 10
16.1624813283021
 20
22.9203217493057
 30
0.0
 11
16.1641458299828
 21
22.9028307091863
 31
0.0
  0
ARC
  8
0
  6
CONTINUOUS
 62
0
 10
16.2626186503788
 20
22.9200552064291
 30
0.0
 40
0.100137676814507
 50
20.1191996323245
 51
179.847491968942
  0
LINE
  8
0
  6
CONTINUOUS
 62
0
 10
4.14248047570199
 20
25.8036653543306
 30
0.0
 11
4.14664582990778
 21
25.7870000004998
 31
0.0
  0
LINE
  8
0
  6
CONTINUOUS
 62
0
 10
4.34081427092335
 20
25.8211742699936
 30
0.0
 11
4.33914583008278
 21
25.8386653538056
 31
0.0
  0
ARC
  8
0
  6
CONTINUOUS
 62
0
 10
4.24067479799817
 20
25.821446206914
 30
0.0
 40
0.100139842157961
 50
200.119606989341
 51
359.84440901195
  0
LINE
  8
0
  6
CONTINUOUS
 62
0
 10
4.33914583003269
 20
25.8386653543306
 30
0.0
 11
4.33498047582698
 21
25.8553307081614
 31
0.0
  0
LINE
  8
0
  6
CONTINUOUS
 62
0
 10
4.1408159725826
 20
25.8211564095687
 30
0.0
 11
4.14248047565209
 21
25.8036653548556
 31
0.0
  0
ARC
  8
0
  6
CONTINUOUS
 62
0
 10
4.24095318937813
 20
25.8208864860276
 30
0.0
 40
0.100137580589267
 50
20.1188718988848
 51
179.845557498656
  0
LINE
  8
0
  6
CONTINUOUS
 62
0
 10
4.16414583003268
 20
22.9028307086613
 30
0.0
 11
4.1683151212462
 21
22.8861653548305
 31
0.0
  0
LINE
  8
0
  6
CONTINUOUS
 62
0
 10
4.36247961594186
 20
22.9203397432566
 30
0.0
 11
4.36081512142128
 21
22.9378307081364
 31
0.0
  0
ARC
  8
0
  6
CONTINUOUS
 62
0
 10
4.26234262107679
 20
22.9206083388607
 30
0.0
 40
0.100137355088928
 50
200.118164721624
 51
359.846316961854
  0
LINE
  8
0
  6
CONTINUOUS
 62
0
 10
4.36081512137129
 20
22.9378307086613
 30
0.0
 11
4.35664583015779
 21
22.9544999994999
 31
0.0
  0
LINE
  8
0
  6
CONTINUOUS
 62
0
 10
4.16248132830344
 20
22.9203217492914
 30
0.0
 11
4.1641458299828
 21
22.9028307091863
 31
0.0
  0
ARC
  8
0
  6
CONTINUOUS
 62
0
 10
4.26261865038021
 20
22.9200552064252
 30
0.0
 40
0.1001376768145
 50
20.1191996346886
 51
179.84749197493
  0
LINE
  8
0
  6
CONTINUOUS
 62
0
 10
16.142480475702
 20
25.8036653543306
 30
0.0
 11
16.1466458299078
 21
25.7870000004998
 31
0.0
  0
LINE
  8
0
  6
CONTINUOUS
 62
0
 10
16.3408142705287
 20
25.8211742741309
 30
0.0
 11
16.3391458300828
 21
25.8386653538056
 31
0.0
  0
ARC
  8
0
  6
CONTINUOUS
 62
0
 10
16.2406749604751
 20
25.821445282577
 30
0.0
 40
0.100139676769899
 50
200.119078417853
 51
359.844939991525
  0
LINE
  8
0
  6
CONTINUOUS
 62
0
 10
16.3391458300327
 20
25.8386653543306
 30
0.0
 11
16.334980475827
 21
25.8553307081614
 31
0.0
  0
LINE
  8
0
  6
CONTINUOUS
 62
0
 10
16.1408159704513
 20
25.8211564319647
 30
0.0
 11
16.1424804756521
 21
25.8036653548556
 31
0.0
  0
ARC
  8
0
  6
CONTINUOUS
 62
0
 10
16.2409541059902
 20
25.8208812717841
 30
0.0
 40
0.100138513581584
 50
20.1218536590635
 51
179.842562703275
  0
LINE
  8
0
  6
CONTINUOUS
 62
0
 10
4.05914583003269
 20
20.0669999999999
 30
0.0
 11
4.06331512124619
 21
20.0495000005249
 31
0.0
  0
LINE
  8
0
  6
CONTINUOUS
 62
0
 10
4.25747978023516
 20
20.0836726624867
 30
0.0
 11
4.25581512142129
 21
20.1011653538056
 31
0.0
  0
ARC
  8
0
  6
CONTINUOUS
 62
0
 10
4.15726449664705
 20
20.0843873725056
 30
0.0
 40
0.10021783212112
 50
200.372088898882
 51
359.591387940522
  0
LINE
  8
0
  6
CONTINUOUS
 62
0
 10
4.25581512137128
 20
20.1011653543306
 30
0.0
 11
4.25164583015778
 21
20.1186653538056
 31
0.0
  0
LINE
  8
0
  6
CONTINUOUS
 62
0
 10
4.05748127632456
 20
20.0836573424267
 30
0.0
 11
4.05914582998278
 21
20.0670000004998
 31
0.0
  0
ARC
  8
0
  6
CONTINUOUS
 62
0
 10
4.15772656640372
 20
20.083618362707
 30
0.0
 40
0.100245297657662
 50
20.4636050430727
 51
179.97772091523
  0
LINE
  8
0
  6
CONTINUOUS
 62
0
 10
16.0591458300327
 20
20.0669999999999
 30
0.0
 11
16.0633151212462
 21
20.0495000005249
 31
0.0
  0
LINE
  8
0
  6
CONTINUOUS
 62
0
 10
16.2574797797396
 20
20.0836726676941
 30
0.0
 11
16.2558151214213
 21
20.1011653538056
 31
0.0
  0
ARC
  8
0
  6
CONTINUOUS
 62
0
 10
16.1572647247088
 20
20.0843860751264
 30
0.0
 40
0.100217594288616
 50
200.371348173875
 51
359.592131696415
  0
LINE
  8
0
  6
CONTINUOUS
 62
0
 10
16.2558151213713
 20
20.1011653543306
 30
0.0
 11
16.2516458301578
 21
20.1186653538056
 31
0.0
  0
LINE
  8
0
  6
CONTINUOUS
 62
0
 10
16.0574812741958
 20
20.0836573637291
 30
0.0
 11
16.0591458299828
 21
20.0670000004998
 31
0.0
  0
ARC
  8
0
  6
CONTINUOUS
 62
0
 10
16.1577275049311
 20
20.08361315124
 30
0.0
 40
0.10024624048501
 50
20.4665832295226
 51
179.974730333069
  0
LINE
  8
0
  6
CONTINUOUS
 62
0
 10
16.142480475702
 20
28.6061653543306
 30
0.0
 11
16.1466458299078
 21
28.5895000004998
 31
0.0
  0
LINE
  8
0
  6
CONTINUOUS
 62
0
 10
16.3408141334929
 20
28.6236752168056
 30
0.0
 11
16.3391458300828
 21
28.6403307081614
 31
0.0
  0
ARC
  8
0
  6
CONTINUOUS
 62
0
 10
16.2407394941172
 20
28.6235782222727
 30
0.0
 40
0.1000746863803
 50
199.909039526854
 51
0.0555323073123696
  0
LINE
  8
0
  6
CONTINUOUS
 62
0
 10
16.3391458300327
 20
28.6403307086613
 30
0.0
 11
16.334980475827
 21
28.6578307081364
 31
0.0
  0
LINE
  8
0
  6
CONTINUOUS
 62
0
 10
16.1408158192627
 20
28.6236580206963
 30
0.0
 11
16.1424804756521
 21
28.6061653548556
 31
0.0
  0
ARC
  8
0
  6
CONTINUOUS
 62
0
 10
16.2410299522855
 20
28.6229498673811
 30
0.0
 40
0.100216635039486
 50
20.3683599207518
 51
179.5951317478
  0
LINE
  8
0
  6
CONTINUOUS
 62
0
 10
4.14248047570199
 20
28.6061653543306
 30
0.0
 11
4.14664582990778
 21
28.5895000004998
 31
0.0
  0
LINE
  8
0
  6
CONTINUOUS
 62
0
 10
4.3408141334615
 20
28.6236752171187
 30
0.0
 11
4.33914583008278
 21
28.6403307081614
 31
0.0
  0
ARC
  8
0
  6
CONTINUOUS
 62
0
 10
4.24073949408602
 20
28.6235782223587
 30
0.0
 40
0.100074686380307
 50
199.90903957919
 51
0.0555324373748685
  0
LINE
  8
0
  6
CONTINUOUS
 62
0
 10
4.33914583003269
 20
28.6403307086613
 30
0.0
 11
4.33498047582698
 21
28.6578307081364
 31
0.0
  0
LINE
  8
0
  6
CONTINUOUS
 62
0
 10
4.14081581695838
 20
28.6236580449107
 30
0.0
 11
4.14248047565209
 21
28.6061653548556
 31
0.0
  0
ARC
  8
0
  6
CONTINUOUS
 62
0
 10
4.24103104341335
 20
28.6229436604745
 30
0.0
 40
0.100217772668046
 50
20.37190373234
 51
179.591573842609
  0
LINE
  8
0
  6
CONTINUOUS
 62
0
 10
24.6694687579722
 20
32.9699999999999
 30
0.0
 11
24.6494687585722
 21
32.9683346457192
 31
0.0
  0
LINE
  8
0
  6
CONTINUOUS
 62
0
 10
24.5294687579722
 20
32.8350044851133
 30
0.0
 11
24.5294687579722
 21
32.8300000001499
 31
0.0
  0
ARC
  8
0
  6
CONTINUOUS
 62
0
 10
24.6687815885148
 20
32.8302863192793
 30
0.0
 40
0.139392703692193
 50
97.9639378305194
 51
178.060281291938
  0
LINE
  8
0
  6
CONTINUOUS
 62
0
 10
24.5294687579722
 20
32.8299999999999
 30
0.0
 11
24.5302994666087
 21
32.8108346462441
 31
0.0
  0
LINE
  8
0
  6
CONTINUOUS
 62
0
 10
24.6644720092337
 20
32.6899999999999
 30
0.0
 11
26.8894686913766
 21
32.6899999999999
 31
0.0
  0
ARC
  8
0
  6
CONTINUOUS
 62
0
 10
24.6695514362349
 20
32.8305487716915
 30
0.0
 40
0.140640526885623
 50
188.057907101731
 51
267.930233605834
  0
LINE
  8
0
  6
CONTINUOUS
 62
0
 10
26.8894687579722
 20
32.6899999999999
 30
0.0
 11
26.908634111728
 21
32.6916653542807
 31
0.0
  0
LINE
  8
0
  6
CONTINUOUS
 62
0
 10
27.0286343273094
 20
32.8250012880109
 30
0.0
 11
27.0294687579472
 21
32.8299999998499
 31
0.0
  0
ARC
  8
0
  6
CONTINUOUS
 62
0
 10
26.8901902758873
 20
32.8289316203419
 30
0.0
 40
0.138499829914778
 50
277.65273553388
 51
358.373848615095
  0
LINE
  8
0
  6
CONTINUOUS
 62
0
 10
27.0294687579722
 20
32.8299999999999
 30
0.0
 11
27.0277994666837
 21
32.8491653537557
 31
0.0
  0
LINE
  8
0
  6
CONTINUOUS
 62
0
 10
26.893630851066
 20
32.9699999999999
 30
0.0
 11
24.6694687579722
 21
32.9699999999999
 31
0.0
  0
ARC
  8
0
  6
CONTINUOUS
 62
0
 10
26.8885538271681
 20
32.8294584221089
 30
0.0
 40
0.140633251003262
 50
8.05536669749836
 51
87.9311061704271
  0
LINE
  8
0
  6
CONTINUOUS
 62
0
 10
24.5294687579722
 20
20.8299999999999
 30
0.0
 11
24.5302994666087
 21
20.8108346462441
 31
0.0
  0
LINE
  8
0
  6
CONTINUOUS
 62
0
 10
24.6644719669465
 20
20.6899999999999
 30
0.0
 11
26.8894686913766
 21
20.6899999999999
 31
0.0
  0
ARC
  8
0
  6
CONTINUOUS
 62
0
 10
24.6695608815836
 20
20.83055925785
 30
0.0
 40
0.140651349156569
 50
188.061597230934
 51
267.926525517199
  0
LINE
  8
0
  6
CONTINUOUS
 62
0
 10
24.6694687579722
 20
20.9699999999999
 30
0.0
 11
24.6494687585722
 21
20.9683346457192
 31
0.0
  0
LINE
  8
0
  6
CONTINUOUS
 62
0
 10
24.5294687579722
 20
20.8350044851097
 30
0.0
 11
24.5294687579722
 21
20.8300000001499
 31
0.0
  0
ARC
  8
0
  6
CONTINUOUS
 62
0
 10
24.6687815885149
 20
20.8302863192793
 30
0.0
 40
0.13939270369219
 50
97.96393783057
 51
178.060281293442
  0
LINE
  8
0
  6
CONTINUOUS
 62
0
 10
27.0294687579722
 20
20.8299999999999
 30
0.0
 11
27.0277994666837
 21
20.8491653537557
 31
0.0
  0
LINE
  8
0
  6
CONTINUOUS
 62
0
 10
26.8936308933908
 20
20.9699999999999
 30
0.0
 11
24.6694687579722
 21
20.9699999999999
 31
0.0
  0
ARC
  8
0
  6
CONTINUOUS
 62
0
 10
26.8885443826013
 20
20.8294479371263
 30
0.0
 40
0.14064407193355
 50
8.05905678341964
 51
87.9273981085562
  0
LINE
  8
0
  6
CONTINUOUS
 62
0
 10
26.8894687579722
 20
20.6899999999999
 30
0.0
 11
26.908634111728
 21
20.6916653542807
 31
0.0
  0
LINE
  8
0
  6
CONTINUOUS
 62
0
 10
27.0286343273277
 20
20.8250012881205
 30
0.0
 11
27.0294687579472
 21
20.8299999998499
 31
0.0
  0
ARC
  8
0
  6
CONTINUOUS
 62
0
 10
26.8901902759025
 20
20.828931620344
 30
0.0
 40
0.138499829914775
 50
277.652735527514
 51
358.373848659632
  0
LINE
  8
0
  6
CONTINUOUS
 62
0
 10
21.730000329978
 20
34.09
 30
0.0
 11
23.000000164989
 21
34.09
 31
0.0
  0
LINE
  8
0
  6
CONTINUOUS
 62
0
 10
18.2608151213713
 20
29.8736653543306
 30
0.0
 11
1.24081537665428
 21
29.8736653543306
 31
0.0
  0
LINE
  8
0
  6
CONTINUOUS
 62
0
 10
1.24081537665428
 20
29.8736653543306
 30
0.0
 11
1.24081512137128
 21
27.3736654293256
 31
0.0
  0
LINE
  8
0
  6
CONTINUOUS
 62
0
 10
18.5124802169692
 20
21.6703307086613
 30
0.0
 11
18.512480475702
 21
22.4203306861628
 31
0.0
  0
LINE
  8
0
  6
CONTINUOUS
 62
0
 10
1.15748047570199
 20
18.8336653543306
 30
0.0
 11
18.4074802169692
 21
18.8336653543306
 31
0.0
  0
LINE
  8
0
  6
CONTINUOUS
 62
0
 10
18.9258151213713
 20
25.5278307086613
 30
0.0
 11
18.9258151213713
 21
26.5278306786633
 31
0.0
  0
LINE
  8
0
  6
CONTINUOUS
 62
0
 10
19.2258151213713
 20
21.1336653543306
 30
0.0
 11
19.2258151213713
 21
21.8836653318321
 31
0.0
  0
LINE
  8
0
  6
CONTINUOUS
 62
0
 10
19.2258151213713
 20
19.3836653543306
 30
0.0
 11
19.2258151213713
 21
20.1336653318321
 31
0.0
  0
LINE
  8
0
  6
CONTINUOUS
 62
0
 10
19.1841458300327
 20
27.4819999999999
 30
0.0
 11
19.1841458300327
 21
28.2319999775014
 31
0.0
  0
LINE
  8
0
  6
CONTINUOUS
 62
0
 10
19.1841458300327
 20
29.2319999999999
 30
0.0
 11
19.1841458300327
 21
29.9819999775014
 31
0.0
  0
LINE
  8
0
  6
CONTINUOUS
 62
0
 10
1.24081512137128
 20
27.3736653543306
 30
0.0
 11
18.2608148660883
 21
27.3736653543306
 31
0.0
  0
LINE
  8
0
  6
CONTINUOUS
 62
0
 10
18.2608148660883
 20
27.3736653543306
 30
0.0
 11
18.2608151213713
 21
28.1236653318321
 31
0.0
  0
LINE
  8
0
  6
CONTINUOUS
 62
0
 10
19.7991458300327
 20
28.2319999999999
 30
0.0
 11
19.7991458300327
 21
27.4820000224984
 31
0.0
  0
LINE
  8
0
  6
CONTINUOUS
 62
0
 10
19.7991458300327
 20
29.9819999999999
 30
0.0
 11
19.7991458300327
 21
29.2320000224984
 31
0.0
  0
LINE
  8
0
  6
CONTINUOUS
 62
0
 10
18.282480475702
 20
22.4203307086613
 30
0.0
 11
18.282480475702
 21
23.4203306786633
 31
0.0
  0
LINE
  8
0
  6
CONTINUOUS
 62
0
 10
20.0716458300327
 20
21.1336653543306
 30
0.0
 11
20.0716458300327
 21
20.1336653843286
 31
0.0
  0
LINE
  8
0
  6
CONTINUOUS
 62
0
 10
18.4074802169692
 20
18.8336653543306
 30
0.0
 11
18.407480475702
 21
19.5836653318321
 31
0.0
  0
LINE
  8
0
  6
CONTINUOUS
 62
0
 10
18.177480475702
 20
19.5836653543306
 30
0.0
 11
18.177480475702
 21
20.5836653243326
 31
0.0
  0
LINE
  8
0
  6
CONTINUOUS
 62
0
 10
18.9608151213713
 20
22.8303307086613
 30
0.0
 11
18.9608151213713
 21
23.8303306786633
 31
0.0
  0
LINE
  8
0
  6
CONTINUOUS
 62
0
 10
20.0366458300327
 20
23.8303307086613
 30
0.0
 11
20.0366458300327
 21
22.8303307386593
 31
0.0
  0
LINE
  8
0
  6
CONTINUOUS
 62
0
 10
2.71081512137128
 20
24.0453307086613
 30
0.0
 11
2.68914583068279
 21
24.1703307049116
 31
0.0
  0
LINE
  8
0
  6
CONTINUOUS
 62
0
 10
6.51914583003268
 20
24.0453307086613
 30
0.0
 11
6.49664583070769
 21
24.1703307049116
 31
0.0
  0
LINE
  8
0
  6
CONTINUOUS
 62
0
 10
10.3266458300327
 20
24.0453307086613
 30
0.0
 11
10.3049804763519
 21
24.1703307049116
 31
0.0
  0
LINE
  8
0
  6
CONTINUOUS
 62
0
 10
19.8066458300327
 20
24.5803307086613
 30
0.0
 11
19.8066458300327
 21
23.8303307311598
 31
0.0
  0
LINE
  8
0
  6
CONTINUOUS
 62
0
 10
19.8066458300327
 20
22.8303307086613
 30
0.0
 11
19.8066458300327
 21
22.0803307311598
 31
0.0
  0
LINE
  8
0
  6
CONTINUOUS
 62
0
 10
20.0291458300327
 20
29.2319999999999
 30
0.0
 11
20.0291458300327
 21
28.2320000299979
 31
0.0
  0
LINE
  8
0
  6
CONTINUOUS
 62
0
 10
18.9958151213713
 20
20.1336653543306
 30
0.0
 11
18.9958151213713
 21
21.1336653243326
 31
0.0
  0
LINE
  8
0
  6
CONTINUOUS
 62
0
 10
17.9208151213713
 20
24.1703307086613
 30
0.0
 11
14.3666458833417
 21
24.1703307086613
 31
0.0
  0
LINE
  8
0
  6
CONTINUOUS
 62
0
 10
6.49664583003269
 20
24.1703307086613
 30
0.0
 11
2.94331517466769
 21
24.1703307086613
 31
0.0
  0
LINE
  8
0
  6
CONTINUOUS
 62
0
 10
1.26248047570199
 20
21.6703307086613
 30
0.0
 11
18.5124802169692
 21
21.6703307086613
 31
0.0
  0
LINE
  8
0
  6
CONTINUOUS
 62
0
 10
6.41414583003268
 20
21.2086653543306
 30
0.0
 11
6.39164583070769
 21
21.3336653505809
 31
0.0
  0
LINE
  8
0
  6
CONTINUOUS
 62
0
 10
19.1908151213713
 20
23.8303307086613
 30
0.0
 11
19.1908151213713
 21
24.5803306861628
 31
0.0
  0
LINE
  8
0
  6
CONTINUOUS
 62
0
 10
19.1908151213713
 20
22.0803307086613
 30
0.0
 11
19.1908151213713
 21
22.8303306861628
 31
0.0
  0
LINE
  8
0
  6
CONTINUOUS
 62
0
 10
17.942480475702
 20
24.0453307086613
 30
0.0
 11
17.9208151220212
 21
24.1703307049116
 31
0.0
  0
LINE
  8
0
  6
CONTINUOUS
 62
0
 10
19.8416458300327
 20
21.8836653543306
 30
0.0
 11
19.8416458300327
 21
21.1336653768291
 31
0.0
  0
LINE
  8
0
  6
CONTINUOUS
 62
0
 10
19.8416458300327
 20
20.1336653543306
 30
0.0
 11
19.8416458300327
 21
19.3836653768291
 31
0.0
  0
LINE
  8
0
  6
CONTINUOUS
 62
0
 10
19.8066458300327
 20
22.0803307086613
 30
0.0
 11
19.190815139845
 21
22.0803307086613
 31
0.0
  0
LINE
  8
0
  6
CONTINUOUS
 62
0
 10
20.0016458300327
 20
26.5278307086613
 30
0.0
 11
20.0016458300327
 21
25.5278307386593
 31
0.0
  0
LINE
  8
0
  6
CONTINUOUS
 62
0
 10
2.83831517466769
 20
21.3336653543306
 30
0.0
 11
2.85998047505208
 21
21.2086653580804
 31
0.0
  0
LINE
  8
0
  6
CONTINUOUS
 62
0
 10
14.3666458833417
 20
24.1703307086613
 30
0.0
 11
14.3883151207213
 21
24.0453307124111
 31
0.0
  0
LINE
  8
0
  6
CONTINUOUS
 62
0
 10
17.8158151213713
 20
21.3336653543306
 30
0.0
 11
14.2616458833417
 21
21.3336653543306
 31
0.0
  0
LINE
  8
0
  6
CONTINUOUS
 62
0
 10
6.39164583003269
 20
21.3336653543306
 30
0.0
 11
2.83831517466769
 21
21.3336653543306
 31
0.0
  0
LINE
  8
0
  6
CONTINUOUS
 62
0
 10
14.134980475702
 20
24.0453307086613
 30
0.0
 11
14.112480476377
 21
24.1703307049116
 31
0.0
  0
LINE
  8
0
  6
CONTINUOUS
 62
0
 10
18.9541458300327
 20
28.2319999999999
 30
0.0
 11
18.9541458300327
 21
29.2319999700019
 31
0.0
  0
LINE
  8
0
  6
CONTINUOUS
 62
0
 10
19.7716458300327
 20
25.5278307086613
 30
0.0
 11
19.7716458300327
 21
24.7778307311598
 31
0.0
  0
LINE
  8
0
  6
CONTINUOUS
 62
0
 10
19.7716458300327
 20
27.2778307086613
 30
0.0
 11
19.7716458300327
 21
26.5278307311598
 31
0.0
  0
LINE
  8
0
  6
CONTINUOUS
 62
0
 10
18.177480475702
 20
20.5836653543306
 30
0.0
 11
18.4074804688025
 21
20.5836653543306
 31
0.0
  0
LINE
  8
0
  6
CONTINUOUS
 62
0
 10
19.8416458300327
 20
19.3836653543306
 30
0.0
 11
19.225815139845
 21
19.3836653543306
 31
0.0
  0
LINE
  8
0
  6
CONTINUOUS
 62
0
 10
14.2616458833417
 20
21.3336653543306
 30
0.0
 11
14.2833151207213
 21
21.2086653580804
 31
0.0
  0
LINE
  8
0
  6
CONTINUOUS
 62
0
 10
17.837480475702
 20
21.2086653543306
 30
0.0
 11
17.8158151220212
 21
21.3336653505809
 31
0.0
  0
LINE
  8
0
  6
CONTINUOUS
 62
0
 10
14.029980475702
 20
21.2086653543306
 30
0.0
 11
14.007480476377
 21
21.3336653505809
 31
0.0
  0
LINE
  8
0
  6
CONTINUOUS
 62
0
 10
2.60581512137129
 20
21.2086653543306
 30
0.0
 11
2.5841458306828
 21
21.3336653505809
 31
0.0
  0
LINE
  8
0
  6
CONTINUOUS
 62
0
 10
19.7991458300327
 20
27.4819999999999
 30
0.0
 11
19.1841458484815
 21
27.4819999999999
 31
0.0
  0
LINE
  8
0
  6
CONTINUOUS
 62
0
 10
20.0716458300327
 20
20.1336653543306
 30
0.0
 11
19.8416458369323
 21
20.1336653543306
 31
0.0
  0
LINE
  8
0
  6
CONTINUOUS
 62
0
 10
19.2258151213713
 20
20.1336653543306
 30
0.0
 11
18.9958151282709
 21
20.1336653543306
 31
0.0
  0
LINE
  8
0
  6
CONTINUOUS
 62
0
 10
18.177480475702
 20
19.5836653543306
 30
0.0
 11
18.4074804688025
 21
19.5836653543306
 31
0.0
  0
LINE
  8
0
  6
CONTINUOUS
 62
0
 10
19.8416458300327
 20
21.1336653543306
 30
0.0
 11
20.0716458231332
 21
21.1336653543306
 31
0.0
  0
LINE
  8
0
  6
CONTINUOUS
 62
0
 10
18.9958151213713
 20
21.1336653543306
 30
0.0
 11
19.2258151144718
 21
21.1336653543306
 31
0.0
  0
LINE
  8
0
  6
CONTINUOUS
 62
0
 10
19.1841458300327
 20
28.2319999999999
 30
0.0
 11
18.9541458369323
 21
28.2319999999999
 31
0.0
  0
LINE
  8
0
  6
CONTINUOUS
 62
0
 10
20.0291458300327
 20
28.2319999999999
 30
0.0
 11
19.7991458369323
 21
28.2319999999999
 31
0.0
  0
LINE
  8
0
  6
CONTINUOUS
 62
0
 10
10.2216458300327
 20
21.2086653543306
 30
0.0
 11
10.1999804763519
 21
21.3336653505809
 31
0.0
  0
LINE
  8
0
  6
CONTINUOUS
 62
0
 10
10.3266458300327
 20
24.0453307086613
 30
0.0
 11
10.5808151137467
 21
24.0453307086613
 31
0.0
  0
LINE
  8
0
  6
CONTINUOUS
 62
0
 10
17.942480475702
 20
24.0453307086613
 30
0.0
 11
18.1966458224083
 21
24.0453307086613
 31
0.0
  0
LINE
  8
0
  6
CONTINUOUS
 62
0
 10
2.71081512137128
 20
24.0453307086613
 30
0.0
 11
2.96498046807758
 21
24.0453307086613
 31
0.0
  0
LINE
  8
0
  6
CONTINUOUS
 62
0
 10
14.134980475702
 20
24.0453307086613
 30
0.0
 11
14.3883151137718
 21
24.0453307086613
 31
0.0
  0
LINE
  8
0
  6
CONTINUOUS
 62
0
 10
6.51914583003268
 20
24.0453307086613
 30
0.0
 11
6.77248046810249
 21
24.0453307086613
 31
0.0
  0
LINE
  8
0
  6
CONTINUOUS
 62
0
 10
10.2216458300327
 20
21.2086653543306
 30
0.0
 11
10.4758151137467
 21
21.2086653543306
 31
0.0
  0
LINE
  8
0
  6
CONTINUOUS
 62
0
 10
17.837480475702
 20
21.2086653543306
 30
0.0
 11
18.0916458224083
 21
21.2086653543306
 31
0.0
  0
LINE
  8
0
  6
CONTINUOUS
 62
0
 10
2.60581512137129
 20
21.2086653543306
 30
0.0
 11
2.85998046807759
 21
21.2086653543306
 31
0.0
  0
LINE
  8
0
  6
CONTINUOUS
 62
0
 10
14.029980475702
 20
21.2086653543306
 30
0.0
 11
14.2833151137718
 21
21.2086653543306
 31
0.0
  0
LINE
  8
0
  6
CONTINUOUS
 62
0
 10
6.41414583003268
 20
21.2086653543306
 30
0.0
 11
6.66748046810248
 21
21.2086653543306
 31
0.0
  0
LINE
  8
0
  6
CONTINUOUS
 62
0
 10
18.282480475702
 20
23.4203307086613
 30
0.0
 11
18.5124804688025
 21
23.4203307086613
 31
0.0
  0
LINE
  8
0
  6
CONTINUOUS
 62
0
 10
19.1908151213713
 20
22.8303307086613
 30
0.0
 11
18.9608151282708
 21
22.8303307086613
 31
0.0
  0
LINE
  8
0
  6
CONTINUOUS
 62
0
 10
20.0366458300327
 20
22.8303307086613
 30
0.0
 11
19.8066458369323
 21
22.8303307086613
 31
0.0
  0
LINE
  8
0
  6
CONTINUOUS
 62
0
 10
19.1841458300327
 20
29.9819999999999
 30
0.0
 11
19.799145811584
 21
29.9819999999999
 31
0.0
  0
LINE
  8
0
  6
CONTINUOUS
 62
0
 10
2.94331517466769
 20
24.1703307086613
 30
0.0
 11
2.96498047505209
 21
24.0453307124111
 31
0.0
  0
LINE
  8
0
  6
CONTINUOUS
 62
0
 10
18.282480475702
 20
22.4203307086613
 30
0.0
 11
18.5124804688025
 21
22.4203307086613
 31
0.0
  0
LINE
  8
0
  6
CONTINUOUS
 62
0
 10
19.1908151213713
 20
24.5803307086613
 30
0.0
 11
19.806645811559
 21
24.5803307086613
 31
0.0
  0
LINE
  8
0
  6
CONTINUOUS
 62
0
 10
19.7991458300327
 20
29.2319999999999
 30
0.0
 11
20.0291458231332
 21
29.2319999999999
 31
0.0
  0
LINE
  8
0
  6
CONTINUOUS
 62
0
 10
18.9541458300327
 20
29.2319999999999
 30
0.0
 11
19.1841458231332
 21
29.2319999999999
 31
0.0
  0
LINE
  8
0
  6
CONTINUOUS
 62
0
 10
18.9608151213713
 20
23.8303307086613
 30
0.0
 11
19.1908151144718
 21
23.8303307086613
 31
0.0
  0
LINE
  8
0
  6
CONTINUOUS
 62
0
 10
19.8066458300327
 20
23.8303307086613
 30
0.0
 11
20.0366458231332
 21
23.8303307086613
 31
0.0
  0
LINE
  8
0
  6
CONTINUOUS
 62
0
 10
19.7716458300327
 20
24.7778307086613
 30
0.0
 11
19.155815139845
 21
24.7778307086613
 31
0.0
  0
LINE
  8
0
  6
CONTINUOUS
 62
0
 10
18.9258151213713
 20
26.5278307086613
 30
0.0
 11
19.1558151144718
 21
26.5278307086613
 31
0.0
  0
LINE
  8
0
  6
CONTINUOUS
 62
0
 10
19.7716458300327
 20
26.5278307086613
 30
0.0
 11
20.0016458231332
 21
26.5278307086613
 31
0.0
  0
LINE
  8
0
  6
CONTINUOUS
 62
0
 10
19.1558151213713
 20
26.5278307086613
 30
0.0
 11
19.1558151213713
 21
27.2778306861628
 31
0.0
  0
LINE
  8
0
  6
CONTINUOUS
 62
0
 10
19.1558151213713
 20
24.7778307086613
 30
0.0
 11
19.1558151213713
 21
25.5278306861628
 31
0.0
  0
LINE
  8
0
  6
CONTINUOUS
 62
0
 10
19.2258151213713
 20
21.8836653543306
 30
0.0
 11
19.841645811559
 21
21.8836653543306
 31
0.0
  0
LINE
  8
0
  6
CONTINUOUS
 62
0
 10
19.1558151213713
 20
25.5278307086613
 30
0.0
 11
18.9258151282709
 21
25.5278307086613
 31
0.0
  0
LINE
  8
0
  6
CONTINUOUS
 62
0
 10
20.0016458300327
 20
25.5278307086613
 30
0.0
 11
19.7716458369323
 21
25.5278307086613
 31
0.0
  0
LINE
  8
0
  6
CONTINUOUS
 62
0
 10
19.1558151213713
 20
27.2778307086613
 30
0.0
 11
19.771645811559
 21
27.2778307086613
 31
0.0
  0
LINE
  8
0
  6
CONTINUOUS
 62
0
 10
28.0294687246744
 20
18.8299999999999
 30
0.0
 11
24.0294687246744
 21
18.8299999999999
 31
0.0
  0
LINE
  8
0
  6
CONTINUOUS
 62
0
 10
28.0294687246744
 20
34.8299999999999
 30
0.0
 11
24.0294687246744
 21
34.8299999999999
 31
0.0
  0
LINE
  8
0
  6
CONTINUOUS
 62
0
 10
24.0294687246744
 20
34.8299999999999
 30
0.0
 11
24.0294687246744
 21
18.8299999999999
 31
0.0
  0
LINE
  8
0
  6
CONTINUOUS
 62
0
 10
28.0294687246744
 20
34.8299999999999
 30
0.0
 11
28.0294687246744
 21
18.8299999999999
 31
0.0
  0
LINE
  8
0
  6
CONTINUOUS
 62
0
 10
28.1834450426312
 20
31.4783188976377
 30
0.0
 11
28.1834450426312
 21
32.4783188676397
 31
0.0
  0
LINE
  8
0
  6
CONTINUOUS
 62
0
 10
29.5494687579722
 20
32.9099999999999
 30
0.0
 11
29.5294687585722
 21
32.9083346457192
 31
0.0
  0
LINE
  8
0
  6
CONTINUOUS
 62
0
 10
29.4094687579722
 20
32.775004485116
 30
0.0
 11
29.4094687579722
 21
32.7700000001499
 31
0.0
  0
ARC
  8
0
  6
CONTINUOUS
 62
0
 10
29.5487815885147
 20
32.7702863192793
 30
0.0
 40
0.139392703692193
 50
97.9639378304813
 51
178.060281290816
  0
LINE
  8
0
  6
CONTINUOUS
 62
0
 10
29.4094687579722
 20
32.7699999999999
 30
0.0
 11
29.4102994666087
 21
32.7508346462441
 31
0.0
  0
LINE
  8
0
  6
CONTINUOUS
 62
0
 10
29.5444720092348
 20
32.6299999999999
 30
0.0
 11
31.7694686913766
 21
32.6299999999999
 31
0.0
  0
ARC
  8
0
  6
CONTINUOUS
 62
0
 10
29.5495514362349
 20
32.7705487716915
 30
0.0
 40
0.140640526885623
 50
188.057907101747
 51
267.930233606275
  0
LINE
  8
0
  6
CONTINUOUS
 62
0
 10
31.7694687579722
 20
32.6299999999999
 30
0.0
 11
31.788634111728
 21
32.6316653542807
 31
0.0
  0
LINE
  8
0
  6
CONTINUOUS
 62
0
 10
31.9086343272741
 20
32.7650012877991
 30
0.0
 11
31.9094687579472
 21
32.7699999998499
 31
0.0
  0
ARC
  8
0
  6
CONTINUOUS
 62
0
 10
31.7701902758578
 20
32.768931620338
 30
0.0
 40
0.138499829914778
 50
277.652735546172
 51
358.373848529108
  0
LINE
  8
0
  6
CONTINUOUS
 62
0
 10
31.9094687579722
 20
32.7699999999999
 30
0.0
 11
31.9077994666837
 21
32.7891653537557
 31
0.0
  0
LINE
  8
0
  6
CONTINUOUS
 62
0
 10
31.7736308510686
 20
32.9099999999999
 30
0.0
 11
29.5494687579722
 21
32.9099999999999
 31
0.0
  0
ARC
  8
0
  6
CONTINUOUS
 62
0
 10
31.7685538271681
 20
32.769458422109
 30
0.0
 40
0.140633251003265
 50
8.05536669746063
 51
87.9311061693558
  0
LINE
  8
0
  6
CONTINUOUS
 62
0
 10
29.4094687579722
 20
20.7699999999999
 30
0.0
 11
29.4102994666087
 21
20.7508346462441
 31
0.0
  0
LINE
  8
0
  6
CONTINUOUS
 62
0
 10
29.5444719669473
 20
20.6299999999999
 30
0.0
 11
31.7694686913766
 21
20.6299999999999
 31
0.0
  0
ARC
  8
0
  6
CONTINUOUS
 62
0
 10
29.5495608815836
 20
20.7705592578501
 30
0.0
 40
0.140651349156572
 50
188.061597230945
 51
267.926525517529
  0
LINE
  8
0
  6
CONTINUOUS
 62
0
 10
29.5494687579722
 20
20.9099999999999
 30
0.0
 11
29.5294687585722
 21
20.9083346457192
 31
0.0
  0
LINE
  8
0
  6
CONTINUOUS
 62
0
 10
29.4094687579722
 20
20.77500448511
 30
0.0
 11
29.4094687579722
 21
20.7700000001499
 31
0.0
  0
ARC
  8
0
  6
CONTINUOUS
 62
0
 10
29.5487815885149
 20
20.7702863192793
 30
0.0
 40
0.13939270369219
 50
97.9639378305653
 51
178.060281293307
  0
LINE
  8
0
  6
CONTINUOUS
 62
0
 10
31.9094687579722
 20
20.7699999999999
 30
0.0
 11
31.9077994666837
 21
20.7891653537557
 31
0.0
  0
LINE
  8
0
  6
CONTINUOUS
 62
0
 10
31.7736308933843
 20
20.9099999999999
 30
0.0
 11
29.5494687579722
 21
20.9099999999999
 31
0.0
  0
ARC
  8
0
  6
CONTINUOUS
 62
0
 10
31.7685443826013
 20
20.769447937126
 30
0.0
 40
0.14064407193355
 50
8.05905678351586
 51
87.9273981111911
  0
LINE
  8
0
  6
CONTINUOUS
 62
0
 10
31.7694687579722
 20
20.6299999999999
 30
0.0
 11
31.788634111728
 21
20.6316653542807
 31
0.0
  0
LINE
  8
0
  6
CONTINUOUS
 62
0
 10
31.9086343273093
 20
20.7650012880099
 30
0.0
 11
31.9094687579472
 21
20.7699999998499
 31
0.0
  0
ARC
  8
0
  6
CONTINUOUS
 62
0
 10
31.7701902758871
 20
20.7689316203419
 30
0.0
 40
0.138499829914775
 50
277.652735533935
 51
358.373848614708
  0
LINE
  8
0
  6
CONTINUOUS
 62
0
 10
32.9094687246744
 20
18.7699999999999
 30
0.0
 11
28.9094687246744
 21
18.7699999999999
 31
0.0
  0
LINE
  8
0
  6
CONTINUOUS
 62
0
 10
32.9094687246744
 20
34.7699999999999
 30
0.0
 11
28.9094687246744
 21
34.7699999999999
 31
0.0
  0
LINE
  8
0
  6
CONTINUOUS
 62
0
 10
28.9094687246744
 20
34.7699999999999
 30
0.0
 11
28.9094687246744
 21
18.7699999999999
 31
0.0
  0
LINE
  8
0
  6
CONTINUOUS
 62
0
 10
32.9094687246744
 20
34.7699999999999
 30
0.0
 11
32.9094687246744
 21
18.7699999999999
 31
0.0
  0
LINE
  8
0
  6
CONTINUOUS
 62
0
 10
0.769999999999996
 20
30.59
 30
0.0
 11
23.23
 21
30.59
 31
0.0
  0
LINE
  8
0
  6
CONTINUOUS
 62
0
 10
0.769999999999996
 20
31.59
 30
0.0
 11
1.000000164989
 21
31.59
 31
0.0
  0
LINE
  8
0
  6
CONTINUOUS
 62
0
 10
0.769999999999996
 20
30.59
 30
0.0
 11
0.769999999999996
 21
31.59
 31
0.0
  0
LINE
  8
0
  6
CONTINUOUS
 62
0
 10
23.23
 20
30.59
 30
0.0
 11
23.23
 21
31.59
 31
0.0
  0
LINE
  8
0
  6
CONTINUOUS
 62
0
 10
22.999999835011
 20
31.59
 30
0.0
 11
23.23
 21
31.59
 31
0.0
  0
LINE
  8
0
  6
CONTINUOUS
 62
0
 10
20.730000329978
 20
32.09
 30
0.0
 11
3.270000329978
 21
32.09
 31
0.0
  0
LINE
  8
0
  6
CONTINUOUS
 62
0
 10
2.770000329978
 20
32.59
 30
0.0
 11
2.770000329978
 21
33.59
 31
0.0
  0
LINE
  8
0
  6
CONTINUOUS
 62
0
 10
21.230000329978
 20
33.59
 30
0.0
 11
21.230000329978
 21
32.59
 31
0.0
  0
LINE
  8
0
  6
CONTINUOUS
 62
0
 10
2.270000329978
 20
34.09
 30
0.0
 11
1.000000494967
 21
34.09
 31
0.0
  0
ARC
  8
0
  6
CONTINUOUS
 62
0
 10
2.270000329978
 20
33.59
 30
0.0
 40
0.500000000000001
 50
360
 51
89.9999999999997
  0
ARC
  8
0
  6
CONTINUOUS
 62
0
 10
3.270000329978
 20
32.59
 30
0.0
 40
0.500000000000001
 50
180
 51
270
  0
ARC
  8
0
  6
CONTINUOUS
 62
0
 10
20.730000329978
 20
32.59
 30
0.0
 40
0.499999999999999
 50
270
 51
2.55289209354345E-13
  0
ARC
  8
0
  6
CONTINUOUS
 62
0
 10
21.730000329978
 20
33.59
 30
0.0
 40
0.499999999999999
 50
89.9999999999997
 51
180
  0
ENDSEC
  0
EOF
